<svg xmlns="http://www.w3.org/2000/svg" width="48" height="40" fill="none" viewBox="0 0 48 40">
    <path stroke="#fff" stroke-linecap="round" stroke-linejoin="round" stroke-width="4" d="M46 34c0 1.06-.421 2.078-1.172 2.828C44.078 37.578 43.061 38 42 38H6c-1.06 0-2.078-.422-2.828-1.172S2 35.061 2 34V12c0-1.06.421-2.078 1.172-2.828C3.922 8.422 4.939 8 6 8h8l4-6h12l4 6h8c1.061 0 2.078.421 2.828 1.172C45.578 9.922 46 10.939 46 12v22z"/>
    <path stroke="#fff" stroke-linecap="round" stroke-linejoin="round" stroke-width="4" d="M24 30c4.418 0 8-3.582 8-8s-3.582-8-8-8-8 3.582-8 8 3.582 8 8 8z"/>
</svg>
