<svg xmlns="http://www.w3.org/2000/svg" width="129" height="153" fill="none" viewBox="0 0 129 153">
    <path fill="url(#paint0_linear)" d="M127.827 52.406c-1.367-7.465-2.768-15.014-5.889-21.958-3.419-7.63-8.774-14.246-15.541-19.203-1.006-.755-2.251-1.124-3.508-1.04-1.963.169-2.565 1.364-2.873 2.599-.039.149-.072.292-.098.441-.772 3.788-.255 7.53.864 11.22 1.394 4.605 3.73 9.095 5.673 13.551 3.502 7.986 5.823 16.431 6.891 25.076.144 1.143.255 2.32.281 3.495.019.7.002 1.4-.052 2.098-.088 1.37-.402 2.715-.929 3.983-.092.208-.19.424-.295.65-.104.225-.218.424-.34.597-1.191 1.949-3.049 3.34-4.868 4.71-1.82 1.37-3.881 2.832-6.053 3.573h.072c-1.011.362-2.08.536-3.155.513-3.356-.104-6.936-2.787-10.312-2.157l-.38.085c-3.455.929-6.105 6.32-6.131 9.744v.793c0 .09 0 .182.032.273.033.09.04.344.066.507.026.162.039.2.065.298.026.098.06.293.098.436.04.142.06.2.092.298.033.098.085.267.13.397.047.13.08.195.119.285.039.091.104.247.163.364l.144.273c.066.11.124.227.197.338l.17.26.222.312.19.24.255.286.21.22.28.267.23.201.308.247.242.189.333.227.249.169.366.214.256.143.412.202.242.117c.196.09.4.175.602.253l.294.11.472.17.34.103.386.117.38.098.366.09.406.085.353.072.425.071.34.052.44.058.326.04.458.038H95.181l.575-.045h.112c1.633-.141 3.241-.493 4.783-1.046 4.888-1.838 9.037-5.197 12.878-8.725 7.617-6.983 14.815-15.65 15.424-25.927.235-3.71-.452-7.451-1.126-11.147z" opacity=".5"/>
    <path fill="#00BFA6" d="M69.64 52.09c5.378 0 9.737-4.329 9.737-9.668 0-5.338-4.359-9.666-9.737-9.666-5.377 0-9.737 4.328-9.737 9.666 0 5.34 4.36 9.667 9.737 9.667z"/>
    <path fill="#4D8AF0" d="M51.279 57.297l-.118-.117c.221-.166.4-.38.524-.627.123-.246.187-.518.187-.793s-.064-.546-.187-.792c-.124-.247-.303-.461-.524-.627l.105-.13c.236.182.428.416.56.682.13.267.2.56.2.858 0 .297-.07.59-.2.857-.132.267-.324.5-.56.682l.013.007z"/>
    <path fill="#000" d="M51.279 57.297l-.118-.117c.221-.166.4-.38.524-.627.123-.246.187-.518.187-.793s-.064-.546-.187-.792c-.124-.247-.303-.461-.524-.627l.105-.13c.236.182.428.416.56.682.13.267.2.56.2.858 0 .297-.07.59-.2.857-.132.267-.324.5-.56.682l.013.007z" opacity=".1"/>
    <path fill="#4D8AF0" d="M51.16 57.298c-.235-.182-.427-.416-.559-.682-.131-.267-.2-.56-.2-.858 0-.297.069-.59.2-.857.132-.267.324-.5.56-.682l.105.13c-.221.166-.4.38-.524.627-.123.246-.188.517-.188.792s.065.547.188.793.303.46.524.627l-.105.11z"/>
    <path fill="#FFD180" d="M101.044 109.308c4.469-1.682 8.258-4.755 11.778-7.977 6.963-6.38 13.533-14.292 14.095-23.693.203-3.43-.418-6.847-1.04-10.231-1.25-6.822-2.526-13.72-5.359-20.061-3.125-6.968-8.018-13.012-14.2-17.54-.921-.692-2.062-1.028-3.213-.949-1.963.175-2.461 1.514-2.722 2.794-1.59 7.795 2.774 15.357 5.968 22.633 3.198 7.297 5.319 15.014 6.295 22.913.412 3.352.562 6.977-1.218 9.861-1.086 1.767-2.787 3.053-4.449 4.3-2.487 1.865-5.235 3.82-8.35 3.73-3.115-.091-6.596-2.748-9.816-1.89-3.22.857-5.581 5.775-5.601 8.925-.04 8.537 11.85 9.433 17.832 7.185z"/>
    <g opacity=".1">
        <path fill="#000" d="M111.416 87.057c-1.086 1.767-2.788 3.053-4.45 4.3-1.663 1.363-3.531 2.46-5.536 3.249 2.827-.189 5.36-1.95 7.656-3.697 1.662-1.247 3.364-2.54 4.45-4.3 1.773-2.878 1.63-6.497 1.217-9.862-.975-7.899-3.096-15.616-6.295-22.913-3.193-7.282-7.564-14.85-5.968-22.633.044-.46.183-.906.409-1.31.225-.405.531-.76.9-1.042-.242-.02-.485-.02-.726 0-1.963.176-2.461 1.514-2.722 2.794-1.59 7.795 2.774 15.357 5.967 22.633 3.199 7.297 5.32 15.014 6.295 22.913.432 3.359.583 6.984-1.197 9.868zM85.346 101.694c0-2.91 2.087-7.334 4.894-8.66-.478-.011-.956.044-1.42.163-3.16.851-5.581 5.775-5.601 8.926-.04 7.965 10.293 9.264 16.542 7.594-6.21.897-14.455-.929-14.415-8.023z" opacity=".1"/>
    </g>
    <path fill="url(#paint1_linear)" d="M39.769 12.896s17.825-3.54 26.737 0c0 0 5.346-12.389 10.693-12.389 5.346 0 7.126 19.49 7.126 19.49l7.126 28.31s33.863 60.163 0 92.009c-33.864 31.845-87.326-3.56-87.326-26.564S14.817 42.98 14.817 42.98 25.51 4.054 29.077.514c3.565-3.54 10.692 12.382 10.692 12.382z" opacity=".5"/>
    <path fill="#FFD180" d="M40.37 15.359s17.132-3.404 25.698 0c0 0 5.137-11.908 10.28-11.908s6.851 18.71 6.851 18.71l6.852 27.213s32.555 57.817 0 88.448c-32.555 30.63-83.956-3.404-83.956-25.511 0-22.108 10.28-68.037 10.28-68.037s10.28-37.42 13.709-40.823C33.513.047 40.371 15.359 40.371 15.359z"/>
    <g opacity=".1">
        <path fill="#fff" d="M102.018 81.166C99.39 70.11 95.362 59.43 90.03 49.379l1.08 4.3c4.642 8.737 8.3 17.955 10.908 27.487zM9.176 107.729c0-22.088 8.291-59.156 8.291-59.156s10.28-37.42 13.71-40.823c3.428-3.404 10.28 11.908 10.28 11.908s17.131-3.404 25.697 0c0 0 5.143-11.908 10.28-11.908 1.963 0 3.475 2.82 4.535 6.269-1.047-5.048-2.827-10.57-5.615-10.57-5.137 0-10.28 11.908-10.28 11.908-8.566-3.404-25.697 0-25.697 0S33.526.052 30.097 3.45c-3.43 3.398-13.71 40.824-13.71 40.824s-8.29 37.029-8.29 59.155c-.007 2.001 1.08 4.938 1.08 4.301z" opacity=".1"/>
    </g>
    <path fill="#58555D" d="M73.782 48.527c1.894 0 3.43-1.524 3.43-3.404s-1.536-3.404-3.43-3.404c-1.893 0-3.428 1.524-3.428 3.404s1.535 3.404 3.428 3.404zM34.376 48.527c1.894 0 3.43-1.524 3.43-3.404s-1.536-3.404-3.43-3.404c-1.894 0-3.429 1.524-3.429 3.404s1.535 3.404 3.43 3.404zM54.937 51.933c2.837 0 5.136-1.524 5.136-3.404s-2.3-3.404-5.136-3.404c-2.837 0-5.137 1.524-5.137 3.404s2.3 3.404 5.137 3.404z"/>
    <path fill="#FFD180" d="M99.298 40.862l-15.421 3.4.372 1.661 15.42-3.4-.371-1.66zM101.035 47.669L83.9 51.059l.335 1.669 17.135-3.39-.335-1.67zM5.561 35.824l-.636 1.58 17.133 6.804.637-1.58-17.134-6.804zM.26 44.298L0 45.98l22.274 3.404.261-1.682L.261 44.298z"/>
    <path fill="#000" d="M50.663 70.294c-4.485.004-8.962-.374-13.382-1.13-8.497-1.453-16.674-4.37-24.159-8.62l.595-2.749c7.57 4.07 15.742 6.92 24.212 8.446 12.335 2.098 33.55 1.468 55.111-10.343l1.44 2.599c-15.653 8.588-32.13 11.797-43.817 11.797z" opacity=".1"/>
    <path fill="#F55F44" d="M93.041 55.264c-21.594 11.81-42.783 12.44-55.11 10.342-8.471-1.525-16.643-4.376-24.213-8.445l-1.583 2.507c7.845 4.28 16.338 7.266 25.147 8.842 4.422.758 8.901 1.139 13.389 1.137 11.687 0 28.138-3.203 43.842-11.778l-1.472-2.605zm-41.82 14.149c-.067 0-.131-.02-.186-.056-.055-.037-.098-.088-.123-.149-.025-.06-.032-.127-.019-.191.013-.064.045-.123.091-.17.047-.046.106-.078.171-.09.065-.013.132-.007.193.018.061.025.113.068.15.122.037.055.056.119.056.184-.002.087-.038.17-.1.23-.062.061-.146.095-.234.095v.007z"/>
    <path fill="url(#paint2_linear)" d="M47.902 74.014c0 .871.35 1.708.97 2.324.621.617 1.463.963 2.342.963.878 0 1.72-.346 2.34-.963.622-.616.97-1.453.97-2.324 0-.872-.348-1.708-.97-2.325-.62-.616-1.462-.962-2.34-.962-.879 0-1.72.346-2.342.962-.62.617-.97 1.453-.97 2.325zm3.312-1.644c-.11 0-.215-.032-.306-.092-.09-.06-.16-.145-.202-.245-.042-.1-.053-.21-.032-.315.022-.106.074-.203.15-.28.078-.076.176-.128.282-.149.107-.02.217-.01.318.031.1.042.186.112.246.201.06.09.093.195.093.303 0 .144-.057.282-.158.384-.102.102-.24.16-.385.162h-.006z" opacity=".1"/>
    <path fill="#4D8AF0" d="M48.236 74.015c0 .786.315 1.54.874 2.095.56.555 1.319.867 2.11.867.792 0 1.55-.312 2.11-.867.56-.556.874-1.31.874-2.095 0-.786-.314-1.54-.874-2.095-.56-.555-1.318-.867-2.11-.867-.791 0-1.55.312-2.11.867-.56.556-.874 1.31-.874 2.095zm2.984-1.481c-.098 0-.194-.029-.276-.083-.082-.055-.146-.132-.183-.222-.038-.09-.048-.19-.029-.285.02-.096.067-.184.137-.253s.158-.116.254-.135c.097-.02.197-.01.288.028.09.037.168.1.223.182.054.081.084.176.084.274 0 .131-.053.257-.146.35-.093.092-.22.144-.352.144z"/>
    <path fill="#FFD180" d="M88.65 56.252c-45.603 26.635-71.882 1.949-71.882 1.949l71.882-1.949z"/>
    <path fill="#000" d="M47.706 99.277s11.916 25.719-3.73 27.934c-15.646 2.216-8.507-21.542-8.507-21.542s-1.564-7.048-5.372-7.444M62.102 98.654s-14.167 24.57 1.217 28.13c15.385 3.56 10.398-20.704 10.398-20.704s2.186-6.88 6.02-6.945" opacity=".1"/>
    <path fill="#FFD180" d="M46.325 98.556s11.916 25.719-3.73 27.935c-15.646 2.215-8.507-21.542-8.507-21.542s-1.564-7.068-5.36-7.465M63.208 97.57s-14.194 24.576 1.217 28.11c15.41 3.534 10.398-20.704 10.398-20.704s2.185-6.88 6.02-6.945"/>
    <path fill="#58555D" d="M37.844 121.145h-.268v5.021h.268v-5.021zM42.176 121.145h-.268v5.021h.268v-5.021zM39.827 119.547h-.268v7.022h.268v-7.022zM65.982 120.074h-.268v5.022h.268v-5.022zM70.315 120.074h-.268v5.022h.268v-5.022zM67.966 118.469h-.269v7.022h.269v-7.022z" opacity=".5"/>
    <defs>
        <linearGradient id="paint0_linear" x1="36072.1" x2="36072.1" y1="30266" y2="18029.5" gradientUnits="userSpaceOnUse">
            <stop stop-color="gray" stop-opacity=".25"/>
            <stop offset=".54" stop-color="gray" stop-opacity=".12"/>
            <stop offset="1" stop-color="gray" stop-opacity=".1"/>
        </linearGradient>
        <linearGradient id="paint1_linear" x1="69275" x2="69275" y1="64570.6" y2="28540.6" gradientUnits="userSpaceOnUse">
            <stop stop-color="gray" stop-opacity=".25"/>
            <stop offset=".54" stop-color="gray" stop-opacity=".12"/>
            <stop offset="1" stop-color="gray" stop-opacity=".1"/>
        </linearGradient>
        <linearGradient id="paint2_linear" x1="51.22" x2="51.22" y1="77.301" y2="70.727" gradientUnits="userSpaceOnUse">
            <stop stop-color="#fff"/>
            <stop offset="1"/>
        </linearGradient>
    </defs>
</svg>
